# xmcd
#
# Track frame offsets: 
#        150
#        12414
#        23815
#        35561
#        48428
#        58315
#        72029
#        84943
#        94878
#        107607
#        122654
#
# Disc length: 1779 seconds
#
# Revision: 0
# Processed by: cddbd v1.5.2PL0 Copyright (c) Steve Scherf et al.
# Submitted via: ExactAudioCopy v0.99pb4
#
DISCID=8b06f10b
DTITLE=Cari Lee and the Contenders - Scorched
DYEAR=1900
DGENRE=Country
TTITLE0=I Think About You
TTITLE1=The Lover's Curse
TTITLE2=Scorched
TTITLE3=Fine Fine Man
TTITLE4=Burnt Toast And Black Coffee
TTITLE5=How Come?
TTITLE6=I'm A Little Mixed Up
TTITLE7=Don't Be A Fool
TTITLE8=You Shock Me
TTITLE9=Little Red Rooster
TTITLE10=Now I'm Gonna Roll
EXTD=
EXTT0=
EXTT1=
EXTT2=
EXTT3=
EXTT4=
EXTT5=
EXTT6=
EXTT7=
EXTT8=
EXTT9=
EXTT10=
PLAYORDER=
